<?xml version="1.0" encoding="UTF-8"?>
<svg version="1.1" xmlns="http://www.w3.org/2000/svg" width="692" height="349">
<path d="M0 0 C2.08579692 1.54492408 3.79724015 3.00527678 5.625 4.8125 C6.14352539 5.30878906 6.66205078 5.80507812 7.19628906 6.31640625 C8.27550853 7.3543441 9.34903476 8.39823184 10.41699219 9.44775391 C11.91130862 10.91303211 13.42478822 12.35498136 14.9453125 13.79296875 C19.63311821 18.31755003 23.10355552 22.16301347 26.125 27.9375 C29.01428275 32.13468853 31.50879328 33.36393724 36.3515625 34.3671875 C40.70616162 35.07617099 45.07704164 35.60323117 49.45703125 36.12890625 C68.55547714 38.44766524 88.00367862 46.38937476 104 57 C96.51827679 65.72867707 80.96409956 68.79294317 70 70 C65.60776043 70.08364041 61.21744014 69.97648146 56.82617188 69.87304688 C50.41296604 69.79410082 43.98567456 69.80002927 38.625 73.75 C33.91704521 80.26870663 34.35608648 88.52171244 33.87695312 96.23828125 C32.70267524 112.29732476 32.70267524 112.29732476 28 117 C27.5875 116.06800781 27.175 115.13601562 26.75 114.17578125 C23.1927016 106.27762018 19.2941068 98.89278353 14.6015625 91.609375 C11.76674555 86.99069763 11.76674555 86.99069763 12.48716736 83.93086243 C12.9168557 82.74172493 12.9168557 82.74172493 13.35522461 81.52856445 C13.67563217 80.62785721 13.99603973 79.72714996 14.32615662 78.79914856 C14.68129837 77.83031235 15.03644012 76.86147614 15.40234375 75.86328125 C15.75889542 74.86870407 16.11544708 73.87412689 16.48280334 72.84941101 C17.62581304 69.66728364 18.7814849 66.48992295 19.9375 63.3125 C20.71372768 61.15850459 21.48912897 59.00421118 22.26367188 56.84960938 C24.16619857 51.5629085 26.07914669 46.28006778 28 41 C25.30595297 43.66743216 22.635514 46.31971535 20.16796875 49.19921875 C19.68344238 49.76366699 19.19891602 50.32811523 18.69970703 50.90966797 C18.20067871 51.49635254 17.70165039 52.08303711 17.1875 52.6875 C16.66269043 53.30254395 16.13788086 53.91758789 15.59716797 54.55126953 C8.1653083 62.90985393 8.1653083 62.90985393 1.82275391 72.04980469 C-1.64840606 77.64573529 -1.64840606 77.64573529 -5.44970703 78.64208984 C-8.29764591 78.7872629 -11.03081555 78.70040324 -13.875 78.5 C-14.84953125 78.46390625 -15.8240625 78.4278125 -16.828125 78.390625 C-19.22284579 78.29671438 -21.60934709 78.16561944 -24 78 C-24 77.34 -24 76.68 -24 76 C-22.9523451 75.10243049 -21.8603372 74.25625705 -20.75 73.4375 C-15.55183132 69.04067172 -13.50373428 64.54804147 -12.55078125 57.8359375 C-12.04663605 47.90987872 -15.03699455 40.87056142 -19 32 C-21.53507569 25.22289767 -22.45093839 18.56588426 -19.5 11.75 C-15.92032441 5.43442949 -7.56750883 -1.23852622 0 0 Z " fill="#E81132" transform="translate(212,69)"/>
<path d="M0 0 C7.59 0 15.18 0 23 0 C23.33 12.54 23.66 25.08 24 38 C36.28885014 21.90236825 36.28885014 21.90236825 48.45605469 5.71289062 C51.89970439 1.10029561 51.89970439 1.10029561 53 0 C55.07262076 -0.08767112 57.14820294 -0.10695873 59.22265625 -0.09765625 C60.48271484 -0.09443359 61.74277344 -0.09121094 63.04101562 -0.08789062 C64.38151109 -0.07953403 65.72200588 -0.07106907 67.0625 -0.0625 C68.40689942 -0.0574866 69.7513006 -0.05292342 71.09570312 -0.04882812 C74.39717941 -0.03699488 77.69856803 -0.02050971 81 0 C73.08147397 10.60925415 64.96704283 20.99103371 56.29736328 30.99902344 C52.06169161 35.89525321 47.99303615 40.9030068 44 46 C45.42494761 50.25943799 47.50668937 53.05651685 50.4375 56.4375 C51.3454788 57.49982689 52.25166204 58.56369052 53.15625 59.62890625 C53.62546875 60.18078613 54.0946875 60.73266602 54.578125 61.30126953 C56.9283882 64.10915609 59.18445757 66.98890799 61.4375 69.875 C61.8900415 70.45443359 62.34258301 71.03386719 62.80883789 71.63085938 C63.73375982 72.81596153 64.65831795 74.00134771 65.58251953 75.18701172 C67.03717366 77.04754591 68.49978287 78.90155804 69.96484375 80.75390625 C70.45218994 81.37088379 70.93953613 81.98786133 71.44165039 82.62353516 C72.36291915 83.78943992 73.28519869 84.95454708 74.20874023 86.11865234 C77.26566948 89.99491073 80.15423916 93.96595551 83 98 C57.92320758 100.98648396 57.92320758 100.98648396 50.43066406 96.44140625 C46.11385396 92.21723155 43.34655001 87.05987748 40.54931641 81.75585938 C37.87385315 76.99685697 34.50007176 72.76498559 31.1875 68.4375 C30.00989652 66.85615123 28.83633574 65.27177902 27.66796875 63.68359375 C27.17578857 63.01900146 26.6836084 62.35440918 26.17651367 61.66967773 C25 60 25 60 24 58 C23.98541748 58.75095947 23.97083496 59.50191895 23.95581055 60.27563477 C23.88096402 63.70508662 23.78442346 67.13360395 23.6875 70.5625 C23.66494141 71.74392578 23.64238281 72.92535156 23.61914062 74.14257812 C23.37616605 82.02820757 22.89393157 87.55856786 17.6875 93.75 C11.67948469 98.77996631 8.19918907 99.08897899 0 100 C0 67 0 34 0 0 Z " fill="#E71032" transform="translate(129,174)"/>
<path d="M0 0 C-0.78530372 5.34006527 -2.46317691 9.46317691 -6.3125 13.3125 C-11.24867045 16.41195587 -15.37458466 16.00769043 -21 15.4375 C-25.52399502 14.99969403 -28.82965442 14.91482721 -33 17 C-35.32444564 18.92867967 -35.32444564 18.92867967 -35.5 22.3125 C-34.9443132 26.41069015 -34.12209477 27.22179822 -30.96582031 29.68139648 C-26.22730421 32.85982737 -20.99168226 35.21855299 -15.875 37.71875 C-7.23165303 42.07778665 0.09348725 47.08935126 4.15234375 56.12890625 C6.56942557 64.31579627 5.95584339 73.11325153 2.30859375 80.82421875 C-2.59128734 88.97118521 -10.84890904 93.8942986 -19.89453125 96.55786133 C-33.5127989 99.41763437 -50.25659947 97.53062057 -62.4375 90.75 C-63.7059375 89.88375 -63.7059375 89.88375 -65 89 C-63.65072455 84.46152802 -61.80840652 80.68067754 -59.375 76.625 C-58.74335937 75.56539063 -58.11171875 74.50578125 -57.4609375 73.4140625 C-56.97882812 72.61742187 -56.49671875 71.82078125 -56 71 C-55.29101562 71.28617187 -54.58203125 71.57234375 -53.8515625 71.8671875 C-39.44266983 77.61748807 -39.44266983 77.61748807 -24.4375 75.6875 C-21.78000461 74.06906832 -21.78000461 74.06906832 -20 71 C-19.85396163 68.03451971 -19.85396163 68.03451971 -21 65 C-26.54621443 59.5796316 -33.32237227 56.59255245 -40.21289062 53.19335938 C-47.36090404 49.57573593 -54.06821459 45.77540705 -57.875 38.4375 C-58.26429687 37.71433594 -58.65359375 36.99117187 -59.0546875 36.24609375 C-62.16126319 28.86476721 -61.63009108 21.44950509 -58.90625 14.09765625 C-55.45694018 6.11369343 -49.81445691 0.96016304 -41.875 -2.3125 C-28.61007614 -7.33452389 -12.87250221 -5.61798009 0 0 Z " fill="#E81132" transform="translate(111,177)"/>
<path d="M0 0 C5.86338294 -0.23584557 10.52231592 0.35703484 16.0625 2.25 C16.81619873 2.50450928 17.56989746 2.75901855 18.34643555 3.02124023 C25.26804185 5.49748348 31.78806588 8.69098252 38.3125 12.0625 C39.29677979 12.5687793 40.28105957 13.07505859 41.29516602 13.59667969 C46.26763568 16.24510241 50.31292053 18.7154407 54 23 C53.34773438 23.27972656 52.69546875 23.55945313 52.0234375 23.84765625 C44.51062137 27.29380052 39.34999292 31.30089346 36 39 C33.47520071 49.64895183 37.34399315 58.27063514 41.66015625 67.86328125 C44.52217591 74.56357801 45.37869708 81.6784338 43.12890625 88.73046875 C38.72043683 98.28456149 32.50960476 102.27554877 22.8828125 106.02734375 C19.48362691 107.17422344 16.57950001 107.84436956 13 108 C12.34 107.67 11.68 107.34 11 107 C10.44326782 104.7190094 10.44326782 104.7190094 10.01025391 101.61157227 C9.84487122 100.42628937 9.67948853 99.24100647 9.50909424 98.01980591 C8.53186938 90.42797206 7.67514125 82.82296478 6.8359375 75.21484375 C6.63706724 73.4237052 6.43814244 71.63257271 6.23916626 69.84144592 C5.82536442 66.10928278 5.41393888 62.37686613 5.00390625 58.64428711 C4.48129937 53.89093679 3.95007738 49.13859196 3.41673851 44.38643551 C3.00390755 40.69519934 2.59703705 37.00332326 2.19176102 33.31125069 C1.99854057 31.55975396 1.80321677 29.8084878 1.60563278 28.05747795 C0.54896802 18.6717799 -0.32076878 9.46443894 0 0 Z " fill="#F47F20" transform="translate(152,43)"/>
<path d="M0 0 C3.15490315 2.13386177 6.04708454 4.59658359 9 7 C9.58652344 7.43828125 10.17304688 7.8765625 10.77734375 8.328125 C14.80154929 11.40003763 16.74114018 14.56915959 19 19 C16.40746605 22.04030435 13.46221878 23.37899663 9.8671875 25.046875 C9.25120697 25.33464813 8.63522644 25.62242126 8.00057983 25.91891479 C5.96169547 26.86916521 3.91847996 27.8096778 1.875 28.75 C0.43567291 29.41802739 -1.00345139 30.08649187 -2.44238281 30.75537109 C-13.88171699 36.0627033 -25.35854687 41.28973051 -36.85253906 46.47753906 C-43.66019043 49.55288082 -50.44590802 52.66577913 -57.1953125 55.8671875 C-58.50290708 56.48491113 -59.81052381 57.10258789 -61.11816406 57.72021484 C-63.57086398 58.87926175 -66.01641047 60.05049502 -68.45996094 61.22900391 C-69.5430957 61.74124512 -70.62623047 62.25348633 -71.7421875 62.78125 C-72.6894873 63.23564453 -73.63678711 63.69003906 -74.61279297 64.15820312 C-77 65 -77 65 -80 64 C-80.82922429 61.14545819 -81.23822783 59.57094265 -80.07421875 56.78125 C-79.61660156 56.0284375 -79.15898437 55.275625 -78.6875 54.5 C-74.84851034 47.28993078 -74.17435985 39.85266199 -73.76953125 31.7890625 C-73.71490723 30.72002686 -73.71490723 30.72002686 -73.65917969 29.62939453 C-73.5669257 27.59747713 -73.50343873 25.56431446 -73.44140625 23.53125 C-72.88208194 19.05665548 -71.40693394 16.45904261 -68.3125 13.25 C-63.45715434 10.62548883 -57.46594883 10.90832323 -52.06640625 11.06616211 C-35.64469947 11.53374615 -20.11078661 7.92347416 -5.765625 -0.27734375 C-3.38560668 -1.25146629 -2.36567644 -0.9681919 0 0 Z " fill="#F47F20" transform="translate(323,131)"/>
<path d="M0 0 C2.5 1.75 2.5 1.75 4 3 C5.03125 2.21625 6.0625 1.4325 7.125 0.625 C13.11231045 -3.60204118 18.75994128 -4.7960274 26 -4 C32.56938747 -2.02918376 35.71358848 1.08507272 39.12252808 6.92205811 C40.09582813 9.22693065 40.24206421 10.81734082 40.22705078 13.30957031 C40.22689972 14.15013977 40.22674866 14.99070923 40.22659302 15.85675049 C40.21627045 16.75480408 40.20594788 17.65285767 40.1953125 18.578125 C40.1924826 19.5046991 40.18965271 20.43127319 40.18673706 21.38592529 C40.17555611 24.34074909 40.15045527 27.29526805 40.125 30.25 C40.11496751 32.25520395 40.10584213 34.26041266 40.09765625 36.265625 C40.07562358 41.17720051 40.04110795 46.08854859 40 51 C35.38 51 30.76 51 26 51 C25.98541748 49.93563721 25.97083496 48.87127441 25.95581055 47.7746582 C25.8977022 43.81403531 25.82047055 39.85397352 25.73754883 35.89379883 C25.70435831 34.18197762 25.67630811 32.47004852 25.65356445 30.75805664 C25.61990968 28.29266521 25.56759026 25.82825719 25.51171875 23.36328125 C25.50532883 22.60163162 25.4989389 21.83998199 25.49235535 21.05525208 C25.3687551 16.55706444 24.79279553 13.57606233 22 10 C19.56381363 8.78190681 18.31476972 8.98191664 15.625 9.25 C14.85414063 9.31703125 14.08328125 9.3840625 13.2890625 9.453125 C10.33441507 10.15901346 9.10961028 10.76944453 7 13 C6.57448297 15.98451857 6.39512794 18.615867 6.390625 21.60546875 C6.37408875 22.44467361 6.35755249 23.28387848 6.34051514 24.14851379 C6.29193977 26.82824958 6.27064372 29.50741757 6.25 32.1875 C6.22184819 34.00458601 6.19192187 35.82164545 6.16015625 37.63867188 C6.0861786 42.09240118 6.03666257 46.54581351 6 51 C1.38 51 -3.24 51 -8 51 C-8.01458252 49.97116699 -8.02916504 48.94233398 -8.04418945 47.88232422 C-8.10238657 44.04653053 -8.17961703 40.21131078 -8.26245117 36.37597656 C-8.29560018 34.71949616 -8.32366309 33.06290554 -8.34643555 31.40625 C-8.38016732 29.01775366 -8.43248959 26.63025829 -8.48828125 24.2421875 C-8.49467117 23.50757294 -8.5010611 22.77295837 -8.50764465 22.01608276 C-8.64066963 17.30995624 -9.50012403 13.99750282 -12 10 C-14.43618637 8.78190681 -15.68523028 8.98191664 -18.375 9.25 C-19.14585937 9.31703125 -19.91671875 9.3840625 -20.7109375 9.453125 C-23.66558493 10.15901346 -24.89038972 10.76944453 -27 13 C-27.42551703 15.98451857 -27.60487206 18.615867 -27.609375 21.60546875 C-27.62591125 22.44467361 -27.64244751 23.28387848 -27.65948486 24.14851379 C-27.70806023 26.82824958 -27.72935628 29.50741757 -27.75 32.1875 C-27.77815181 34.00458601 -27.80807813 35.82164545 -27.83984375 37.63867188 C-27.9138214 42.09240118 -27.96333743 46.54581351 -28 51 C-32.95 51 -37.9 51 -43 51 C-42.99476318 49.85635986 -42.98952637 48.71271973 -42.98413086 47.53442383 C-42.96582736 43.23104659 -42.95447677 38.92767268 -42.94506836 34.62426758 C-42.94008542 32.77302468 -42.93329665 30.92178563 -42.92456055 29.07055664 C-42.88010809 19.39822399 -42.88802539 9.8408026 -43.88110352 0.2097168 C-43.92033936 -0.51948975 -43.9595752 -1.24869629 -44 -2 C-43 -3 -43 -3 -39.3125 -3.375 C-34.40728615 -3.35732355 -32.38494718 -1.38494718 -29 2 C-28.46890625 1.65066406 -27.9378125 1.30132812 -27.390625 0.94140625 C-26.68421875 0.48636719 -25.9778125 0.03132812 -25.25 -0.4375 C-24.55390625 -0.88996094 -23.8578125 -1.34242188 -23.140625 -1.80859375 C-15.38610765 -6.12452038 -7.18706352 -4.52638989 0 0 Z " fill="#F47F20" transform="translate(606,221)"/>
<path d="M0 0 C5.03706126 4.15465637 8.90051165 9.48160476 10 16 C10.85955855 26.91639361 10.99140196 36.08912926 3.625 44.8125 C2.75875 45.534375 1.8925 46.25625 1 47 C0.154375 47.721875 -0.69125 48.44375 -1.5625 49.1875 C-9.02798305 53.12384561 -17.20809936 53.73524061 -25.390625 51.890625 C-32.31811023 49.52615399 -37.59215979 45.5430532 -41 39 C-44.7312489 30.35921306 -44.69881772 20.92480316 -42 12 C-38.84785087 5.03209139 -34.0325499 -0.03258774 -26.8125 -2.8125 C-17.60086788 -5.4972973 -8.43067063 -4.66043283 0 0 Z M-26 11 C-28.71205804 15.4495704 -29.40910455 18.81610824 -29.375 24 C-29.38273438 25.175625 -29.39046875 26.35125 -29.3984375 27.5625 C-28.83261697 32.44408886 -27.13112992 35.73579597 -23.875 39.375 C-19.8560275 41.64659315 -16.51267361 41.92160236 -12 41 C-8.70252958 39.29537546 -6.53563278 37.07494688 -4.86328125 33.71875 C-2.82839274 27.31023234 -2.87083956 19.56038532 -5.625 13.375 C-7.75468222 9.82053038 -10.00574655 8.2781611 -14 7 C-19.24563477 6.2350116 -21.98985193 7.61365274 -26 11 Z " fill="#F47E20" transform="translate(544,221)"/>
<path d="M0 0 C5.63757628 4.4424584 8.53842619 11.09621313 10 18 C10 21.3 10 24.6 10 28 C-1.55 28 -13.1 28 -25 28 C-21.97743939 36.30776987 -21.97743939 36.30776987 -18.875 39.0625 C-13.2208138 40.90625637 -7.46339911 40.30016348 -1.6875 39.25 C2 39 2 39 4.9375 40.6875 C7.01307156 43.01465599 7.41147481 44.05737405 8 47 C-0.68091482 52.20854889 -10.38008301 54.11209057 -20.375 52.0625 C-27.58104462 49.8814705 -32.55977246 45.72938009 -36.4375 39.3125 C-40.07426875 31.60255025 -40.22458909 22.30422017 -38.31640625 14.0390625 C-35.95853397 7.67965594 -32.6952282 2.12145128 -26.70703125 -1.31640625 C-17.31038741 -5.49754855 -8.97608064 -5.13792691 0 0 Z M-24 12 C-24.33 13.98 -24.66 15.96 -25 18 C-18.4 18 -11.8 18 -5 18 C-5.9223624 11.7917617 -5.9223624 11.7917617 -10 8 C-15.87696664 5.06151668 -19.83675008 7.54629078 -24 12 Z " fill="#F47E20" transform="translate(430,221)"/>
<path d="M0 0 C6.87880527 4.62996508 9.53858251 10.22157895 11.25 18.125 C11.89419291 21.78672813 12.19614675 25.27321179 12 29 C8.97354845 30.51322577 5.89228139 30.00453618 2.5859375 29.87890625 C1.85629791 29.85529526 1.12665833 29.83168427 0.37490845 29.80735779 C-1.95859139 29.73070246 -4.29176089 29.64668657 -6.625 29.5625 C-8.20571293 29.50928115 -9.78644205 29.45654074 -11.3671875 29.40429688 C-15.24500138 29.27508487 -19.12253486 29.13927041 -23 29 C-22.57316368 30.27445454 -22.13302798 31.54445882 -21.6875 32.8125 C-21.32205078 33.87404297 -21.32205078 33.87404297 -20.94921875 34.95703125 C-19.9091758 37.19547761 -18.90047152 38.43739008 -17 40 C-11.56789582 41.81070139 -5.76906249 41.31901127 -0.1875 40.3125 C3 40 3 40 5.8125 41.1875 C8.06260912 43.05187613 8.8080499 44.39496878 10 47 C2.48307283 52.71286465 -5.39847386 54.28462769 -14.80859375 53.87890625 C-22.4634593 52.72052566 -28.57882589 48.9799066 -33.4375 43 C-38.51604669 33.24919035 -38.88964001 23.53784141 -36 13 C-33.03948604 6.12285278 -27.89196668 0.90273927 -21.1875 -2.375 C-13.70115386 -3.84291101 -6.81134469 -3.6405463 0 0 Z M-22 13 C-22.33 14.98 -22.66 16.96 -23 19 C-16.4 19 -9.8 19 -3 19 C-4.33954912 12.37817284 -4.33954912 12.37817284 -7.1875 9.5625 C-13.45595291 6.08002616 -17.82776958 7.35521766 -22 13 Z " fill="#F47E20" transform="translate(343,220)"/>
<path d="M0 0 C0 5.28 0 10.56 0 16 C4.95 16 9.9 16 15 16 C12.125 25.875 12.125 25.875 11 27 C9.14712498 27.07226502 7.29166122 27.0838122 5.4375 27.0625 C4.42558594 27.05347656 3.41367187 27.04445312 2.37109375 27.03515625 C1.19740234 27.01775391 1.19740234 27.01775391 0 27 C0.1181656 31.09362106 0.24240784 35.18700767 0.37231445 39.28027344 C0.41565846 40.6731259 0.45733396 42.06603131 0.49731445 43.45898438 C0.55502932 45.45976651 0.61921869 47.46035859 0.68359375 49.4609375 C0.72025146 50.66540527 0.75690918 51.86987305 0.79467773 53.11083984 C0.81052987 55.93996367 0.81052987 55.93996367 2 58 C3.258125 58.020625 4.51625 58.04125 5.8125 58.0625 C6.52019531 58.07410156 7.22789062 58.08570313 7.95703125 58.09765625 C10.20305461 58.08263217 10.20305461 58.08263217 13 57 C12.17355372 65.42975207 12.17355372 65.42975207 9 69 C3.60932671 71.98611985 -1.15342831 72.47200194 -7.05078125 70.8046875 C-9.73793021 69.69536348 -11.29656308 68.34222577 -13 66 C-14.25282725 62.24151826 -14.12381835 58.74509081 -14.09765625 54.83203125 C-14.0962413 54.03721848 -14.09482635 53.2424057 -14.09336853 52.42350769 C-14.08777378 49.88646675 -14.07522228 47.34951425 -14.0625 44.8125 C-14.05748432 43.09179815 -14.05292153 41.37109492 -14.04882812 39.65039062 C-14.03780607 35.4335597 -14.02054506 31.21679484 -14 27 C-17.3 27 -20.6 27 -24 27 C-24 23.37 -24 19.74 -24 16 C-20.7 16 -17.4 16 -14 16 C-14.061875 14.96875 -14.12375 13.9375 -14.1875 12.875 C-13.98204868 8.62900602 -13.38491192 6.49787082 -11 3 C-6.87027913 0.30670378 -5.06378365 0 0 0 Z " fill="#F47F20" transform="translate(287,202)"/>
<path d="M0 0 C-1.625 5.75 -1.625 5.75 -5 8 C-8.5471206 8.05103771 -12.03668774 7.94765195 -15.57617188 7.74609375 C-20.90921231 7.58689851 -23.74848012 8.47214308 -28 12 C-31.14238835 15.90089589 -31.9905924 20.06100788 -32 25 C-31.0594683 30.54913705 -29.3643272 33.44764065 -25 37 C-20.28708728 39.96240228 -15.24497412 38.91180571 -10 38 C-6.55223485 37.04896575 -6.55223485 37.04896575 -4 36 C-2.35 39.3 -0.7 42.6 1 46 C-7.76872522 51.15807366 -17.7088256 53.38463218 -27.72265625 50.8203125 C-34.52420475 48.37035506 -40.15035961 44.16422169 -44 38 C-47.78770434 29.50982499 -48.25090087 21.12069849 -45.375 12.3125 C-42.31656538 4.74127025 -38.35477412 0.15581937 -30.9296875 -3.2734375 C-20.99199426 -7.01516006 -8.84960266 -5.8997351 0 0 Z " fill="#F47E20" transform="translate(496,222)"/>
<path d="M0 0 C6.6484375 -0.21875 6.6484375 -0.21875 9.8125 1.75 C13.66402256 5.71156607 14.25198768 8.66298992 14.31884766 14.14550781 C14.33871735 15.38649231 14.35858704 16.62747681 14.37905884 17.90606689 C14.39093424 19.25508445 14.40259715 20.60410389 14.4140625 21.953125 C14.43277907 23.33747506 14.45235285 24.72181378 14.4727478 26.10614014 C14.52402362 29.74252627 14.56367346 33.37894937 14.60089111 37.01550293 C14.64095945 40.72917797 14.69203884 44.44269983 14.7421875 48.15625 C14.83889283 55.43739482 14.92331463 62.71861389 15 70 C17.64 70.33 20.28 70.66 23 71 C22.75645269 75.14030433 22.36725344 77.5031277 19.875 80.875 C16.3583369 83.47427272 14.36463257 84 10 84 C5.37403977 82.53511259 2.38952803 81.27247733 0 77 C-0.27459312 74.40888525 -0.38011978 72.06454365 -0.34057617 69.47753906 C-0.34101425 68.72593002 -0.34145233 67.97432098 -0.34190369 67.19993591 C-0.33981766 64.72156582 -0.31649603 62.24387657 -0.29296875 59.765625 C-0.28737212 58.04498667 -0.28310234 56.32434355 -0.28010559 54.60369873 C-0.26866208 50.07935339 -0.2391992 45.55529788 -0.20599365 41.03106689 C-0.1752821 36.41267823 -0.16159794 31.79424264 -0.14648438 27.17578125 C-0.11432899 18.1170603 -0.06313862 9.05855427 0 0 Z " fill="#F47F1F" transform="translate(364,190)"/>
</svg>
