<svg width="62" height="175" viewBox="0 0 62 175" fill="none" xmlns="http://www.w3.org/2000/svg">
<path d="M12.6821 146.418C9.24465 134.96 6.88024 120.593 5.80442 105.054C5.06832 94.421 13.7858 85.7695 24.4439 85.7695L30.8766 85.7695L37.3093 85.7695C47.9674 85.7695 56.6848 94.421 55.9487 105.054C54.8729 120.593 52.5085 134.96 49.071 146.418C44.2456 162.503 37.7008 171.539 30.8766 171.539C24.0523 171.539 17.5076 162.503 12.6821 146.418Z" stroke="black" stroke-width="5.55"/>
<rect x="54.0352" y="44.1719" width="7.71926" height="18.0116" rx="3.85963" fill="black"/>
<rect y="44.1719" width="7.71926" height="18.0116" rx="3.85963" fill="black"/>
<rect x="29.5898" y="19.7266" width="2.57309" height="9.0058" rx="1.28654" fill="black"/>
<rect x="5.34727" y="27.648" width="51.0579" height="51.0579" rx="21.6693" stroke="black" stroke-width="5.55"/>
</svg>
