<svg width="550" height="175" viewBox="0 0 550 175" fill="none" xmlns="http://www.w3.org/2000/svg">
<circle cx="508.9" cy="20.7268" r="3.85963" fill="black"/>
<path d="M490.705 146.418C487.267 134.96 484.903 120.593 483.827 105.054C483.091 94.421 491.808 85.7695 502.466 85.7695L508.899 85.7695L515.332 85.7695C525.99 85.7695 534.707 94.421 533.971 105.054C532.895 120.593 530.531 134.96 527.093 146.418C522.268 162.503 515.723 171.539 508.899 171.539C502.075 171.539 495.53 162.503 490.705 146.418Z" stroke="black" stroke-width="5.55"/>
<rect x="532.058" y="44.1719" width="7.71926" height="18.0116" rx="3.85963" fill="black"/>
<rect x="478.022" y="44.1719" width="7.71926" height="18.0116" rx="3.85963" fill="black"/>
<rect x="507.612" y="19.7266" width="2.57309" height="9.0058" rx="1.28654" fill="black"/>
<rect x="483.37" y="27.648" width="51.0579" height="51.0579" rx="21.6693" stroke="black" stroke-width="5.55"/>
<line x1="54.8926" y1="26.3027" x2="74.3337" y2="26.3027" stroke="black" stroke-width="4.57438"/>
<path d="M124.147 167.865H118.584L96.0116 122.403H32.7457L10.6503 167.865H5.08671L64.5376 45.7843L124.147 167.865ZM94.1041 117.793L64.2197 57.2294L34.9711 117.793H94.1041ZM139.324 96.3334H144.411V107.143C149.286 98.7708 157.128 94.5849 167.937 94.5849C173.13 94.5849 177.634 96.0685 181.449 99.0357C185.264 101.897 187.913 106.242 189.397 112.07C190.774 106.878 193.794 102.692 198.457 99.5126C203.226 96.2275 208.578 94.5849 214.512 94.5849C222.248 94.5849 228.236 96.8633 232.475 101.42C236.714 105.871 238.833 112.229 238.833 120.495V167.865H233.746V120.495C233.746 113.819 231.998 108.573 228.501 104.758C225.109 100.943 220.606 99.0357 214.989 99.0357C210.75 99.0357 206.829 100.095 203.226 102.215C199.623 104.228 196.762 106.984 194.642 110.481C192.523 113.978 191.463 117.846 191.463 122.085V167.865H186.376V123.357C186.376 115.726 184.575 109.792 180.972 105.553C177.369 101.208 172.706 99.0357 166.983 99.0357C163.168 99.0357 159.512 99.9895 156.015 101.897C152.624 103.805 149.816 106.401 147.59 109.686C145.471 112.865 144.411 116.362 144.411 120.177V167.865H139.324V96.3334ZM290.328 169.614C280.261 169.614 272.472 166.858 266.961 161.348C261.557 155.837 258.854 148.048 258.854 137.981V96.3334H263.941V137.981C263.941 146.671 266.22 153.4 270.776 158.169C275.439 162.832 281.957 165.163 290.328 165.163C295.415 165.163 300.078 164.05 304.317 161.825C308.556 159.493 311.894 156.261 314.331 152.128C316.769 147.995 317.987 143.279 317.987 137.981V96.3334H323.074V167.865H317.987V154.513C315.55 158.963 311.894 162.62 307.019 165.481C302.144 168.236 296.581 169.614 290.328 169.614ZM360.473 169.614C355.386 169.614 350.883 168.766 346.962 167.07C343.04 165.269 340.232 162.99 338.537 160.235V151.81C340.55 156.367 343.305 159.758 346.803 161.984C350.3 164.103 354.751 165.163 360.155 165.163C365.348 165.163 369.534 163.573 372.713 160.394C375.892 157.109 377.482 152.923 377.482 147.836C377.482 143.491 376.581 140.153 374.779 137.822C372.978 135.384 370.064 132.947 366.037 130.51L359.996 127.013C355.651 124.363 352.366 122.297 350.141 120.813C348.021 119.224 346.326 117.475 345.054 115.568C343.782 113.554 343.146 111.223 343.146 108.573C343.146 104.334 344.63 100.943 347.597 98.3999C350.565 95.8566 354.433 94.5849 359.201 94.5849C365.03 94.5849 369.905 95.9095 373.826 98.5589V105.553C370.541 101.208 365.825 99.0357 359.678 99.0357C356.287 99.0357 353.532 99.8835 351.412 101.579C349.293 103.275 348.233 105.447 348.233 108.096C348.233 110.428 348.869 112.494 350.141 114.296C351.412 115.991 353.161 117.581 355.386 119.065C357.718 120.548 361.533 122.774 366.831 125.741C372.236 128.814 376.21 131.993 378.753 135.279C381.297 138.458 382.568 142.644 382.568 147.836C382.568 154.407 380.396 159.705 376.051 163.732C371.812 167.653 366.619 169.614 360.473 169.614ZM433.222 165.322C438.732 165.322 443.978 163.891 448.959 161.03C453.94 158.169 458.073 154.248 461.358 149.267V157.374C457.437 161.719 453.145 164.898 448.482 166.911C443.819 168.819 438.521 169.773 432.586 169.773C426.016 169.773 419.816 168.024 413.988 164.527C408.265 161.03 403.655 156.367 400.158 150.539C396.767 144.71 395.072 138.511 395.072 131.94C395.072 124.84 396.767 118.482 400.158 112.865C403.549 107.143 408.159 102.692 413.988 99.5126C419.922 96.3334 426.493 94.7438 433.699 94.7438C444.72 94.7438 454.099 99.0887 461.835 107.779L411.921 157.056C415.418 159.917 418.81 162.037 422.095 163.414C425.38 164.686 429.089 165.322 433.222 165.322ZM400.158 131.463C400.158 140.259 403.073 147.783 408.901 154.036L455.476 107.779C451.979 104.705 448.588 102.533 445.303 101.261C442.018 99.8835 438.097 99.1947 433.54 99.1947C427.075 99.1947 421.3 100.625 416.213 103.487C411.232 106.242 407.311 110.057 404.45 114.932C401.589 119.806 400.158 125.317 400.158 131.463Z" fill="black"/>
<path d="M124.147 167.865H118.584L96.0116 122.403H32.7457L10.6503 167.865H5.08671L64.5376 45.7843L124.147 167.865ZM94.1041 117.793L64.2197 57.2294L34.9711 117.793H94.1041ZM139.324 96.3334H144.411V107.143C149.286 98.7708 157.128 94.5849 167.937 94.5849C173.13 94.5849 177.634 96.0685 181.449 99.0357C185.264 101.897 187.913 106.242 189.397 112.07C190.774 106.878 193.794 102.692 198.457 99.5126C203.226 96.2275 208.578 94.5849 214.512 94.5849C222.248 94.5849 228.236 96.8633 232.475 101.42C236.714 105.871 238.833 112.229 238.833 120.495V167.865H233.746V120.495C233.746 113.819 231.998 108.573 228.501 104.758C225.109 100.943 220.606 99.0357 214.989 99.0357C210.75 99.0357 206.829 100.095 203.226 102.215C199.623 104.228 196.762 106.984 194.642 110.481C192.523 113.978 191.463 117.846 191.463 122.085V167.865H186.376V123.357C186.376 115.726 184.575 109.792 180.972 105.553C177.369 101.208 172.706 99.0357 166.983 99.0357C163.168 99.0357 159.512 99.9895 156.015 101.897C152.624 103.805 149.816 106.401 147.59 109.686C145.471 112.865 144.411 116.362 144.411 120.177V167.865H139.324V96.3334ZM290.328 169.614C280.261 169.614 272.472 166.858 266.961 161.348C261.557 155.837 258.854 148.048 258.854 137.981V96.3334H263.941V137.981C263.941 146.671 266.22 153.4 270.776 158.169C275.439 162.832 281.957 165.163 290.328 165.163C295.415 165.163 300.078 164.05 304.317 161.825C308.556 159.493 311.894 156.261 314.331 152.128C316.769 147.995 317.987 143.279 317.987 137.981V96.3334H323.074V167.865H317.987V154.513C315.55 158.963 311.894 162.62 307.019 165.481C302.144 168.236 296.581 169.614 290.328 169.614ZM360.473 169.614C355.386 169.614 350.883 168.766 346.962 167.07C343.04 165.269 340.232 162.99 338.537 160.235V151.81C340.55 156.367 343.305 159.758 346.803 161.984C350.3 164.103 354.751 165.163 360.155 165.163C365.348 165.163 369.534 163.573 372.713 160.394C375.892 157.109 377.482 152.923 377.482 147.836C377.482 143.491 376.581 140.153 374.779 137.822C372.978 135.384 370.064 132.947 366.037 130.51L359.996 127.013C355.651 124.363 352.366 122.297 350.141 120.813C348.021 119.224 346.326 117.475 345.054 115.568C343.782 113.554 343.146 111.223 343.146 108.573C343.146 104.334 344.63 100.943 347.597 98.3999C350.565 95.8566 354.433 94.5849 359.201 94.5849C365.03 94.5849 369.905 95.9095 373.826 98.5589V105.553C370.541 101.208 365.825 99.0357 359.678 99.0357C356.287 99.0357 353.532 99.8835 351.412 101.579C349.293 103.275 348.233 105.447 348.233 108.096C348.233 110.428 348.869 112.494 350.141 114.296C351.412 115.991 353.161 117.581 355.386 119.065C357.718 120.548 361.533 122.774 366.831 125.741C372.236 128.814 376.21 131.993 378.753 135.279C381.297 138.458 382.568 142.644 382.568 147.836C382.568 154.407 380.396 159.705 376.051 163.732C371.812 167.653 366.619 169.614 360.473 169.614ZM433.222 165.322C438.732 165.322 443.978 163.891 448.959 161.03C453.94 158.169 458.073 154.248 461.358 149.267V157.374C457.437 161.719 453.145 164.898 448.482 166.911C443.819 168.819 438.521 169.773 432.586 169.773C426.016 169.773 419.816 168.024 413.988 164.527C408.265 161.03 403.655 156.367 400.158 150.539C396.767 144.71 395.072 138.511 395.072 131.94C395.072 124.84 396.767 118.482 400.158 112.865C403.549 107.143 408.159 102.692 413.988 99.5126C419.922 96.3334 426.493 94.7438 433.699 94.7438C444.72 94.7438 454.099 99.0887 461.835 107.779L411.921 157.056C415.418 159.917 418.81 162.037 422.095 163.414C425.38 164.686 429.089 165.322 433.222 165.322ZM400.158 131.463C400.158 140.259 403.073 147.783 408.901 154.036L455.476 107.779C451.979 104.705 448.588 102.533 445.303 101.261C442.018 99.8835 438.097 99.1947 433.54 99.1947C427.075 99.1947 421.3 100.625 416.213 103.487C411.232 106.242 407.311 110.057 404.45 114.932C401.589 119.806 400.158 125.317 400.158 131.463Z" fill="black"/>
<path d="M124.147 167.865H118.584L96.0116 122.403H32.7457L10.6503 167.865H5.08671L64.5376 45.7843L124.147 167.865ZM94.1041 117.793L64.2197 57.2294L34.9711 117.793H94.1041ZM139.324 96.3334H144.411V107.143C149.286 98.7708 157.128 94.5849 167.937 94.5849C173.13 94.5849 177.634 96.0685 181.449 99.0357C185.264 101.897 187.913 106.242 189.397 112.07C190.774 106.878 193.794 102.692 198.457 99.5126C203.226 96.2275 208.578 94.5849 214.512 94.5849C222.248 94.5849 228.236 96.8633 232.475 101.42C236.714 105.871 238.833 112.229 238.833 120.495V167.865H233.746V120.495C233.746 113.819 231.998 108.573 228.501 104.758C225.109 100.943 220.606 99.0357 214.989 99.0357C210.75 99.0357 206.829 100.095 203.226 102.215C199.623 104.228 196.762 106.984 194.642 110.481C192.523 113.978 191.463 117.846 191.463 122.085V167.865H186.376V123.357C186.376 115.726 184.575 109.792 180.972 105.553C177.369 101.208 172.706 99.0357 166.983 99.0357C163.168 99.0357 159.512 99.9895 156.015 101.897C152.624 103.805 149.816 106.401 147.59 109.686C145.471 112.865 144.411 116.362 144.411 120.177V167.865H139.324V96.3334ZM290.328 169.614C280.261 169.614 272.472 166.858 266.961 161.348C261.557 155.837 258.854 148.048 258.854 137.981V96.3334H263.941V137.981C263.941 146.671 266.22 153.4 270.776 158.169C275.439 162.832 281.957 165.163 290.328 165.163C295.415 165.163 300.078 164.05 304.317 161.825C308.556 159.493 311.894 156.261 314.331 152.128C316.769 147.995 317.987 143.279 317.987 137.981V96.3334H323.074V167.865H317.987V154.513C315.55 158.963 311.894 162.62 307.019 165.481C302.144 168.236 296.581 169.614 290.328 169.614ZM360.473 169.614C355.386 169.614 350.883 168.766 346.962 167.07C343.04 165.269 340.232 162.99 338.537 160.235V151.81C340.55 156.367 343.305 159.758 346.803 161.984C350.3 164.103 354.751 165.163 360.155 165.163C365.348 165.163 369.534 163.573 372.713 160.394C375.892 157.109 377.482 152.923 377.482 147.836C377.482 143.491 376.581 140.153 374.779 137.822C372.978 135.384 370.064 132.947 366.037 130.51L359.996 127.013C355.651 124.363 352.366 122.297 350.141 120.813C348.021 119.224 346.326 117.475 345.054 115.568C343.782 113.554 343.146 111.223 343.146 108.573C343.146 104.334 344.63 100.943 347.597 98.3999C350.565 95.8566 354.433 94.5849 359.201 94.5849C365.03 94.5849 369.905 95.9095 373.826 98.5589V105.553C370.541 101.208 365.825 99.0357 359.678 99.0357C356.287 99.0357 353.532 99.8835 351.412 101.579C349.293 103.275 348.233 105.447 348.233 108.096C348.233 110.428 348.869 112.494 350.141 114.296C351.412 115.991 353.161 117.581 355.386 119.065C357.718 120.548 361.533 122.774 366.831 125.741C372.236 128.814 376.21 131.993 378.753 135.279C381.297 138.458 382.568 142.644 382.568 147.836C382.568 154.407 380.396 159.705 376.051 163.732C371.812 167.653 366.619 169.614 360.473 169.614ZM433.222 165.322C438.732 165.322 443.978 163.891 448.959 161.03C453.94 158.169 458.073 154.248 461.358 149.267V157.374C457.437 161.719 453.145 164.898 448.482 166.911C443.819 168.819 438.521 169.773 432.586 169.773C426.016 169.773 419.816 168.024 413.988 164.527C408.265 161.03 403.655 156.367 400.158 150.539C396.767 144.71 395.072 138.511 395.072 131.94C395.072 124.84 396.767 118.482 400.158 112.865C403.549 107.143 408.159 102.692 413.988 99.5126C419.922 96.3334 426.493 94.7438 433.699 94.7438C444.72 94.7438 454.099 99.0887 461.835 107.779L411.921 157.056C415.418 159.917 418.81 162.037 422.095 163.414C425.38 164.686 429.089 165.322 433.222 165.322ZM400.158 131.463C400.158 140.259 403.073 147.783 408.901 154.036L455.476 107.779C451.979 104.705 448.588 102.533 445.303 101.261C442.018 99.8835 438.097 99.1947 433.54 99.1947C427.075 99.1947 421.3 100.625 416.213 103.487C411.232 106.242 407.311 110.057 404.45 114.932C401.589 119.806 400.158 125.317 400.158 131.463Z" fill="black"/>
<path d="M124.147 167.865H118.584L96.0116 122.403H32.7457L10.6503 167.865H5.08671L64.5376 45.7843L124.147 167.865ZM94.1041 117.793L64.2197 57.2294L34.9711 117.793H94.1041ZM139.324 96.3334H144.411V107.143C149.286 98.7708 157.128 94.5849 167.937 94.5849C173.13 94.5849 177.634 96.0685 181.449 99.0357C185.264 101.897 187.913 106.242 189.397 112.07C190.774 106.878 193.794 102.692 198.457 99.5126C203.226 96.2275 208.578 94.5849 214.512 94.5849C222.248 94.5849 228.236 96.8633 232.475 101.42C236.714 105.871 238.833 112.229 238.833 120.495V167.865H233.746V120.495C233.746 113.819 231.998 108.573 228.501 104.758C225.109 100.943 220.606 99.0357 214.989 99.0357C210.75 99.0357 206.829 100.095 203.226 102.215C199.623 104.228 196.762 106.984 194.642 110.481C192.523 113.978 191.463 117.846 191.463 122.085V167.865H186.376V123.357C186.376 115.726 184.575 109.792 180.972 105.553C177.369 101.208 172.706 99.0357 166.983 99.0357C163.168 99.0357 159.512 99.9895 156.015 101.897C152.624 103.805 149.816 106.401 147.59 109.686C145.471 112.865 144.411 116.362 144.411 120.177V167.865H139.324V96.3334ZM290.328 169.614C280.261 169.614 272.472 166.858 266.961 161.348C261.557 155.837 258.854 148.048 258.854 137.981V96.3334H263.941V137.981C263.941 146.671 266.22 153.4 270.776 158.169C275.439 162.832 281.957 165.163 290.328 165.163C295.415 165.163 300.078 164.05 304.317 161.825C308.556 159.493 311.894 156.261 314.331 152.128C316.769 147.995 317.987 143.279 317.987 137.981V96.3334H323.074V167.865H317.987V154.513C315.55 158.963 311.894 162.62 307.019 165.481C302.144 168.236 296.581 169.614 290.328 169.614ZM360.473 169.614C355.386 169.614 350.883 168.766 346.962 167.07C343.04 165.269 340.232 162.99 338.537 160.235V151.81C340.55 156.367 343.305 159.758 346.803 161.984C350.3 164.103 354.751 165.163 360.155 165.163C365.348 165.163 369.534 163.573 372.713 160.394C375.892 157.109 377.482 152.923 377.482 147.836C377.482 143.491 376.581 140.153 374.779 137.822C372.978 135.384 370.064 132.947 366.037 130.51L359.996 127.013C355.651 124.363 352.366 122.297 350.141 120.813C348.021 119.224 346.326 117.475 345.054 115.568C343.782 113.554 343.146 111.223 343.146 108.573C343.146 104.334 344.63 100.943 347.597 98.3999C350.565 95.8566 354.433 94.5849 359.201 94.5849C365.03 94.5849 369.905 95.9095 373.826 98.5589V105.553C370.541 101.208 365.825 99.0357 359.678 99.0357C356.287 99.0357 353.532 99.8835 351.412 101.579C349.293 103.275 348.233 105.447 348.233 108.096C348.233 110.428 348.869 112.494 350.141 114.296C351.412 115.991 353.161 117.581 355.386 119.065C357.718 120.548 361.533 122.774 366.831 125.741C372.236 128.814 376.21 131.993 378.753 135.279C381.297 138.458 382.568 142.644 382.568 147.836C382.568 154.407 380.396 159.705 376.051 163.732C371.812 167.653 366.619 169.614 360.473 169.614ZM433.222 165.322C438.732 165.322 443.978 163.891 448.959 161.03C453.94 158.169 458.073 154.248 461.358 149.267V157.374C457.437 161.719 453.145 164.898 448.482 166.911C443.819 168.819 438.521 169.773 432.586 169.773C426.016 169.773 419.816 168.024 413.988 164.527C408.265 161.03 403.655 156.367 400.158 150.539C396.767 144.71 395.072 138.511 395.072 131.94C395.072 124.84 396.767 118.482 400.158 112.865C403.549 107.143 408.159 102.692 413.988 99.5126C419.922 96.3334 426.493 94.7438 433.699 94.7438C444.72 94.7438 454.099 99.0887 461.835 107.779L411.921 157.056C415.418 159.917 418.81 162.037 422.095 163.414C425.38 164.686 429.089 165.322 433.222 165.322ZM400.158 131.463C400.158 140.259 403.073 147.783 408.901 154.036L455.476 107.779C451.979 104.705 448.588 102.533 445.303 101.261C442.018 99.8835 438.097 99.1947 433.54 99.1947C427.075 99.1947 421.3 100.625 416.213 103.487C411.232 106.242 407.311 110.057 404.45 114.932C401.589 119.806 400.158 125.317 400.158 131.463Z" fill="black"/>
</svg>
