<svg width="400" height="128" viewBox="0 0 400 128" fill="none" xmlns="http://www.w3.org/2000/svg">
<path d="M376.901 6.28358C378.496 6.28358 379.788 4.87695 379.788 3.14179C379.788 1.40663 378.496 0 376.901 0C375.306 0 374.014 1.40663 374.014 3.14179C374.014 4.87695 375.306 6.28358 376.901 6.28358Z" fill="white"/>
<path d="M381.712 53.9933C390.709 53.9933 398.21 61.9666 397.577 71.9298V71.9301C396.764 84.6867 394.978 96.5423 392.355 106.058C390.518 112.72 388.314 118.079 385.825 121.82C383.367 125.512 380.364 128 376.899 128L376.899 128C373.435 128 370.432 125.512 367.974 121.819C365.485 118.079 363.281 112.72 361.444 106.058C358.862 96.6912 357.091 85.0565 356.262 72.5272L356.223 71.9298C355.59 61.967 363.09 53.9933 372.087 53.9933H381.712ZM372.087 58.1824C365.138 58.1824 359.597 64.2933 360.064 71.6407L360.102 72.2278C360.916 84.5429 362.652 95.8588 365.132 104.854L365.299 105.453C367.033 111.588 369.022 116.252 371.092 119.362C373.261 122.621 375.259 123.811 376.899 123.811C378.539 123.811 380.538 122.621 382.707 119.362C384.844 116.151 386.894 111.285 388.667 104.854L388.785 104.424C391.241 95.3554 392.95 83.9871 393.737 71.6403C394.203 64.2935 388.661 58.1824 381.712 58.1824H372.087Z" fill="white"/>
<path d="M400 25.3681C400 23.633 398.707 22.2263 397.113 22.2263C395.518 22.2263 394.225 23.633 394.225 25.3681V33.7463C394.225 35.4814 395.518 36.888 397.113 36.888C398.707 36.888 400 35.4814 400 33.7463V25.3681Z" fill="white"/>
<path d="M359.575 25.3681C359.575 23.633 358.283 22.2263 356.688 22.2263C355.093 22.2263 353.801 23.633 353.801 25.3681V33.7463C353.801 35.4814 355.093 36.888 356.688 36.888C358.283 36.888 359.575 35.4814 359.575 33.7463V25.3681Z" fill="white"/>
<path d="M377.862 3.37476C377.862 2.79637 377.431 2.32749 376.9 2.32749C376.368 2.32749 375.937 2.79637 375.937 3.37476V8.61109C375.937 9.18948 376.368 9.65835 376.9 9.65835C377.431 9.65835 377.862 9.18948 377.862 8.61109V3.37476Z" fill="white"/>
<path d="M394.224 26.4151C394.224 17.7393 387.761 10.7061 379.787 10.7061H374.013C366.039 10.7061 359.576 17.7393 359.576 26.4151V32.6986C359.576 41.3744 366.039 48.4075 374.013 48.4075H379.787C387.761 48.4074 394.224 41.3744 394.224 32.6986V26.4151ZM398.074 32.6986C398.074 43.688 389.887 52.5966 379.787 52.5966H374.013C363.913 52.5966 355.726 43.688 355.726 32.6986V26.4151C355.726 15.4257 363.913 6.51698 374.013 6.51698H379.787C389.887 6.517 398.074 15.4257 398.074 26.4151V32.6986Z" fill="white"/>
<path d="M51.8033 5.81873V9.54237H37.2595V5.81873H51.8033Z" fill="white"/>
<path d="M89.0688 122.898H84.9066L68.0204 85.8907H20.6916L4.1621 122.898H0L44.4749 23.5221L89.0688 122.898ZM66.5934 82.1383L44.2371 32.8385L22.3563 82.1383H66.5934ZM100.423 64.6698H104.228V73.4687C107.875 66.6538 113.741 63.2466 121.828 63.2466C125.712 63.2466 129.081 64.4542 131.936 66.8695C134.79 69.1987 136.772 72.7355 137.881 77.48C138.912 73.2531 141.171 69.8456 144.66 67.2577C148.227 64.5835 152.231 63.2466 156.67 63.2466C162.457 63.2466 166.937 65.1011 170.107 68.8105C173.279 72.4336 174.864 77.6094 174.864 84.338V122.898H171.059V84.338C171.059 78.9033 169.751 74.6332 167.135 71.5277C164.598 68.4222 161.229 66.8695 157.027 66.8695C153.856 66.8695 150.923 67.7322 148.227 69.4574C145.532 71.0965 143.391 73.3394 141.806 76.186C140.22 79.0328 139.427 82.1814 139.427 85.6319V122.898H135.622V86.667C135.622 80.456 134.274 75.6254 131.579 72.1749C128.883 68.6381 125.395 66.8695 121.114 66.8695C118.26 66.8695 115.525 67.646 112.909 69.1987C110.372 70.7515 108.271 72.8648 106.606 75.5391C105.021 78.127 104.228 80.9736 104.228 84.0791V122.898H100.423V64.6698ZM213.389 124.321C205.857 124.321 200.03 122.078 195.907 117.593C191.864 113.107 189.843 106.767 189.843 98.5715V64.6698H193.648V98.5715C193.648 105.645 195.352 111.123 198.761 115.005C202.25 118.8 207.125 120.698 213.389 120.698C217.193 120.698 220.682 119.792 223.853 117.981C227.023 116.083 229.521 113.452 231.345 110.088C233.167 106.723 234.08 102.885 234.08 98.5715V64.6698H237.885V122.898H234.08V112.029C232.256 115.652 229.521 118.628 225.874 120.957C222.227 123.2 218.065 124.321 213.389 124.321ZM265.863 124.321C262.057 124.321 258.688 123.631 255.756 122.251C252.821 120.784 250.721 118.93 249.452 116.687V109.829C250.959 113.538 253.02 116.299 255.636 118.11C258.253 119.835 261.581 120.698 265.625 120.698C269.51 120.698 272.641 119.404 275.019 116.816C277.398 114.142 278.587 110.735 278.587 106.594C278.587 103.057 277.914 100.34 276.566 98.4421C275.217 96.4581 273.037 94.474 270.026 92.4898L265.505 89.6432C262.256 87.4865 259.798 85.8044 258.133 84.5967C256.547 83.3028 255.279 81.8794 254.329 80.3267C253.376 78.6876 252.9 76.7899 252.9 74.6333C252.9 71.1828 254.01 68.4222 256.23 66.3519C258.45 64.2817 261.345 63.2466 264.911 63.2466C269.272 63.2466 272.919 64.3248 275.851 66.4814V72.1749C273.395 68.6381 269.866 66.8695 265.269 66.8695C262.732 66.8695 260.67 67.5597 259.085 68.9398C257.499 70.3202 256.706 72.0886 256.706 74.2452C256.706 76.1429 257.182 77.825 258.133 79.2915C259.085 80.6718 260.392 81.9657 262.057 83.1735C263.801 84.381 266.656 86.1927 270.62 88.608C274.662 91.1096 277.636 93.6976 279.539 96.3718C281.44 98.9597 282.393 102.367 282.393 106.594C282.393 111.942 280.767 116.255 277.516 119.534C274.346 122.725 270.461 124.321 265.863 124.321ZM320.285 120.828C324.408 120.828 328.333 119.663 332.058 117.334C335.785 115.005 338.877 111.813 341.335 107.759V114.358C338.401 117.894 335.191 120.482 331.702 122.121C328.214 123.674 324.251 124.45 319.811 124.45C314.895 124.45 310.258 123.027 305.897 120.18C301.617 117.334 298.167 113.538 295.551 108.794C293.014 104.049 291.745 99.0027 291.745 93.6545C291.745 87.8748 293.014 82.6989 295.551 78.127C298.088 73.4687 301.536 69.8456 305.897 67.2577C310.337 64.6698 315.251 63.3759 320.643 63.3759C328.888 63.3759 335.904 66.9127 341.691 73.9863L304.35 114.099C306.968 116.428 309.504 118.153 311.962 119.275C314.419 120.31 317.194 120.828 320.285 120.828ZM295.551 93.2663C295.551 100.426 297.732 106.551 302.091 111.64L336.935 73.9863C334.319 71.4847 331.781 69.7163 329.324 68.6811C326.866 67.5597 323.932 66.999 320.523 66.999C315.688 66.999 311.368 68.1635 307.562 70.4926C303.836 72.7355 300.902 75.841 298.763 79.8091C296.622 83.7772 295.551 88.263 295.551 93.2663Z" fill="white"/>
<path d="M89.0688 122.898H84.9066L68.0204 85.8907H20.6916L4.1621 122.898H0L44.4749 23.5221L89.0688 122.898ZM66.5934 82.1383L44.2371 32.8385L22.3563 82.1383H66.5934ZM100.423 64.6698H104.228V73.4687C107.875 66.6538 113.741 63.2466 121.828 63.2466C125.712 63.2466 129.081 64.4542 131.936 66.8695C134.79 69.1987 136.772 72.7355 137.881 77.48C138.912 73.2531 141.171 69.8456 144.66 67.2577C148.227 64.5835 152.231 63.2466 156.67 63.2466C162.457 63.2466 166.937 65.1011 170.107 68.8105C173.279 72.4336 174.864 77.6094 174.864 84.338V122.898H171.059V84.338C171.059 78.9033 169.751 74.6332 167.135 71.5277C164.598 68.4222 161.229 66.8695 157.027 66.8695C153.856 66.8695 150.923 67.7322 148.227 69.4574C145.532 71.0965 143.391 73.3394 141.806 76.186C140.22 79.0328 139.427 82.1814 139.427 85.6319V122.898H135.622V86.667C135.622 80.456 134.274 75.6254 131.579 72.1749C128.883 68.6381 125.395 66.8695 121.114 66.8695C118.26 66.8695 115.525 67.646 112.909 69.1987C110.372 70.7515 108.271 72.8648 106.606 75.5391C105.021 78.127 104.228 80.9736 104.228 84.0791V122.898H100.423V64.6698ZM213.389 124.321C205.857 124.321 200.03 122.078 195.907 117.593C191.864 113.107 189.843 106.767 189.843 98.5715V64.6698H193.648V98.5715C193.648 105.645 195.352 111.123 198.761 115.005C202.25 118.8 207.125 120.698 213.389 120.698C217.193 120.698 220.682 119.792 223.853 117.981C227.023 116.083 229.521 113.452 231.345 110.088C233.167 106.723 234.08 102.885 234.08 98.5715V64.6698H237.885V122.898H234.08V112.029C232.256 115.652 229.521 118.628 225.874 120.957C222.227 123.2 218.065 124.321 213.389 124.321ZM265.863 124.321C262.057 124.321 258.688 123.631 255.756 122.251C252.821 120.784 250.721 118.93 249.452 116.687V109.829C250.959 113.538 253.02 116.299 255.636 118.11C258.253 119.835 261.581 120.698 265.625 120.698C269.51 120.698 272.641 119.404 275.019 116.816C277.398 114.142 278.587 110.735 278.587 106.594C278.587 103.057 277.914 100.34 276.566 98.4421C275.217 96.4581 273.037 94.474 270.026 92.4898L265.505 89.6432C262.256 87.4865 259.798 85.8044 258.133 84.5967C256.547 83.3028 255.279 81.8794 254.329 80.3267C253.376 78.6876 252.9 76.7899 252.9 74.6333C252.9 71.1828 254.01 68.4222 256.23 66.3519C258.45 64.2817 261.345 63.2466 264.911 63.2466C269.272 63.2466 272.919 64.3248 275.851 66.4814V72.1749C273.395 68.6381 269.866 66.8695 265.269 66.8695C262.732 66.8695 260.67 67.5597 259.085 68.9398C257.499 70.3202 256.706 72.0886 256.706 74.2452C256.706 76.1429 257.182 77.825 258.133 79.2915C259.085 80.6718 260.392 81.9657 262.057 83.1735C263.801 84.381 266.656 86.1927 270.62 88.608C274.662 91.1096 277.636 93.6976 279.539 96.3718C281.44 98.9597 282.393 102.367 282.393 106.594C282.393 111.942 280.767 116.255 277.516 119.534C274.346 122.725 270.461 124.321 265.863 124.321ZM320.285 120.828C324.408 120.828 328.333 119.663 332.058 117.334C335.785 115.005 338.877 111.813 341.335 107.759V114.358C338.401 117.894 335.191 120.482 331.702 122.121C328.214 123.674 324.251 124.45 319.811 124.45C314.895 124.45 310.258 123.027 305.897 120.18C301.617 117.334 298.167 113.538 295.551 108.794C293.014 104.049 291.745 99.0027 291.745 93.6545C291.745 87.8748 293.014 82.6989 295.551 78.127C298.088 73.4687 301.536 69.8456 305.897 67.2577C310.337 64.6698 315.251 63.3759 320.643 63.3759C328.888 63.3759 335.904 66.9127 341.691 73.9863L304.35 114.099C306.968 116.428 309.504 118.153 311.962 119.275C314.419 120.31 317.194 120.828 320.285 120.828ZM295.551 93.2663C295.551 100.426 297.732 106.551 302.091 111.64L336.935 73.9863C334.319 71.4847 331.781 69.7163 329.324 68.6811C326.866 67.5597 323.932 66.999 320.523 66.999C315.688 66.999 311.368 68.1635 307.562 70.4926C303.836 72.7355 300.902 75.841 298.763 79.8091C296.622 83.7772 295.551 88.263 295.551 93.2663Z" fill="white"/>
<path d="M89.0688 122.898H84.9066L68.0204 85.8907H20.6916L4.1621 122.898H0L44.4749 23.5221L89.0688 122.898ZM66.5934 82.1383L44.2371 32.8385L22.3563 82.1383H66.5934ZM100.423 64.6698H104.228V73.4687C107.875 66.6538 113.741 63.2466 121.828 63.2466C125.712 63.2466 129.081 64.4542 131.936 66.8695C134.79 69.1987 136.772 72.7355 137.881 77.48C138.912 73.2531 141.171 69.8456 144.66 67.2577C148.227 64.5835 152.231 63.2466 156.67 63.2466C162.457 63.2466 166.937 65.1011 170.107 68.8105C173.279 72.4336 174.864 77.6094 174.864 84.338V122.898H171.059V84.338C171.059 78.9033 169.751 74.6332 167.135 71.5277C164.598 68.4222 161.229 66.8695 157.027 66.8695C153.856 66.8695 150.923 67.7322 148.227 69.4574C145.532 71.0965 143.391 73.3394 141.806 76.186C140.22 79.0328 139.427 82.1814 139.427 85.6319V122.898H135.622V86.667C135.622 80.456 134.274 75.6254 131.579 72.1749C128.883 68.6381 125.395 66.8695 121.114 66.8695C118.26 66.8695 115.525 67.646 112.909 69.1987C110.372 70.7515 108.271 72.8648 106.606 75.5391C105.021 78.127 104.228 80.9736 104.228 84.0791V122.898H100.423V64.6698ZM213.389 124.321C205.857 124.321 200.03 122.078 195.907 117.593C191.864 113.107 189.843 106.767 189.843 98.5715V64.6698H193.648V98.5715C193.648 105.645 195.352 111.123 198.761 115.005C202.25 118.8 207.125 120.698 213.389 120.698C217.193 120.698 220.682 119.792 223.853 117.981C227.023 116.083 229.521 113.452 231.345 110.088C233.167 106.723 234.08 102.885 234.08 98.5715V64.6698H237.885V122.898H234.08V112.029C232.256 115.652 229.521 118.628 225.874 120.957C222.227 123.2 218.065 124.321 213.389 124.321ZM265.863 124.321C262.057 124.321 258.688 123.631 255.756 122.251C252.821 120.784 250.721 118.93 249.452 116.687V109.829C250.959 113.538 253.02 116.299 255.636 118.11C258.253 119.835 261.581 120.698 265.625 120.698C269.51 120.698 272.641 119.404 275.019 116.816C277.398 114.142 278.587 110.735 278.587 106.594C278.587 103.057 277.914 100.34 276.566 98.4421C275.217 96.4581 273.037 94.474 270.026 92.4898L265.505 89.6432C262.256 87.4865 259.798 85.8044 258.133 84.5967C256.547 83.3028 255.279 81.8794 254.329 80.3267C253.376 78.6876 252.9 76.7899 252.9 74.6333C252.9 71.1828 254.01 68.4222 256.23 66.3519C258.45 64.2817 261.345 63.2466 264.911 63.2466C269.272 63.2466 272.919 64.3248 275.851 66.4814V72.1749C273.395 68.6381 269.866 66.8695 265.269 66.8695C262.732 66.8695 260.67 67.5597 259.085 68.9398C257.499 70.3202 256.706 72.0886 256.706 74.2452C256.706 76.1429 257.182 77.825 258.133 79.2915C259.085 80.6718 260.392 81.9657 262.057 83.1735C263.801 84.381 266.656 86.1927 270.62 88.608C274.662 91.1096 277.636 93.6976 279.539 96.3718C281.44 98.9597 282.393 102.367 282.393 106.594C282.393 111.942 280.767 116.255 277.516 119.534C274.346 122.725 270.461 124.321 265.863 124.321ZM320.285 120.828C324.408 120.828 328.333 119.663 332.058 117.334C335.785 115.005 338.877 111.813 341.335 107.759V114.358C338.401 117.894 335.191 120.482 331.702 122.121C328.214 123.674 324.251 124.45 319.811 124.45C314.895 124.45 310.258 123.027 305.897 120.18C301.617 117.334 298.167 113.538 295.551 108.794C293.014 104.049 291.745 99.0027 291.745 93.6545C291.745 87.8748 293.014 82.6989 295.551 78.127C298.088 73.4687 301.536 69.8456 305.897 67.2577C310.337 64.6698 315.251 63.3759 320.643 63.3759C328.888 63.3759 335.904 66.9127 341.691 73.9863L304.35 114.099C306.968 116.428 309.504 118.153 311.962 119.275C314.419 120.31 317.194 120.828 320.285 120.828ZM295.551 93.2663C295.551 100.426 297.732 106.551 302.091 111.64L336.935 73.9863C334.319 71.4847 331.781 69.7163 329.324 68.6811C326.866 67.5597 323.932 66.999 320.523 66.999C315.688 66.999 311.368 68.1635 307.562 70.4926C303.836 72.7355 300.902 75.841 298.763 79.8091C296.622 83.7772 295.551 88.263 295.551 93.2663Z" fill="white"/>
</svg>
